/* XPM */
static char *result[] = {
/* columns rows colors charsAperApixel */
"16 16 15 1 ",
"  c #313131",
". c #462718",
"X c #4C2C1C",
"o c #602A2A",
"O c #71482D",
"+ c #4A404D",
"@ c #5F5566",
"# c #60924E",
"$ c #BC8665",
"% c #B9D775",
"& c #807688",
"* c #ADA3C5",
"= c #FFE0C7",
"A c #D2D1F2",
"- c None",
/* pixels */
"-----+@@@@+-----",
"----+&*AA*&+----",
"----@*AAAA*@----",
"---+**AAAA**+---",
"---@A&&A*&&*@---",
"---@A+%A*%+*@---",
"--- &+#++#+& ---",
"--@@++====++@@--",
"-@*A&o$$$$o&A*@-",
"-+@@+&oXXo&+@@+-",
"-.oX+*&++&*+Xo.-",
"-O..@&AA**&@..O-",
"-O=O+@&&&&@+O=O-",
"--O-@&++++&@-O--",
"----+*+--+*+----",
"----+@----@+----"
}-
