/* XPM */
static char *result[] = {
/* columns rows colors chars-per-pixel */
"41 42 14 1 ",
"  c #1D1923",
". c #4C1E3A",
"X c #2D2242",
"o c #3D3964",
"O c #75405C",
"+ c #59557F",
"@ c #9D3131",
"# c #A16072",
"$ c #DF815D",
"% c #595580",
"& c #7678A2",
"* c #FDC18C",
"= c #BBBFD5",
"- c None",
/* pixels */
"----------------XXX   XXX----------------",
"-------------X X%&&&&&&&%X X-------------",
"------------X%%o&&&&&&&&&o%%X------------",
"----------XX&&&X%&&&&&&&%X&&&XX----------",
"---------X%&&&%o%%%%%%%%%o%&&&%X---------",
"--------X%&&&%%%o%%%%%%%o%%%&&&%X--------",
"-------X%X&%%%%%Xo%%%%%oX%%%%%&X%X-------",
"------X%&&Xo%%%oXXXXXXXXXo%%%oX&&%X------",
"------X&&%o ooXX.........XXoo o%&&X------",
"-----X%&&%%o X....OO.OOOO..X o%%&&%X-----",
"-----X&&%%%oX...OO##.O#OOO.OXo%%%&&X-----",
"----X%&&%%oX...OO###.O#OO#.OOXo%%&&%X----",
"----X&&%%%X..O.OO###.O#O##O#OOX%%%&&X----",
"----XXo%%oX..O.OO###.O#O##O##OXo%%oXX----",
"---X%%oXXX..OO.#O###O##O##O###OXXXo%%X---",
"---X&&%%oX..O#O#O###O#####.#O#OXo%%&&X---",
"---X&%%%oX..O#O#####O#####O#O#OXo%%%&X---",
"--- &%%%oX..O#O#####O#####.####Xo%%%& ---",
"--- %%%%oX..O#O#####O#####.####Xo%%%% ---",
"--- o%%%X..OO#.#####.#####O#O##OX%%%o ---",
"--- XoooX..O##O##O##.###O#.#O##OXoooX ---",
"--- o%%oX..O##.##O##.###O#O#O##OXo%%o ---",
"---X%%%%X..O##.O#O##O###.#O#O##OX%%%%X---",
"---X%%%%X..O##.O#O##.###O#.####OX%%%%X---",
"---X%%%%X..O#O.O#O#O.O##OO.O###OX%%%% ---",
"---X%%%%XXX.....................X%%%% ---",
"---X%%%%XO######################X%%%% ---",
"--- XooXX.OOOOOOO#OOOOOOOOOOOOOOXXooX ---",
"---X%%%%X.OOO=&.OOOO=&.OOO=&.OOOXo%%% ---",
"---X%%%%X.OOO&%.OOOO&%.OOO&%.OOOX%%%% ---",
"---X%%%%X.OOOOOOOOOOOOOOOOOOOOOOX%%%% ---",
"---X%%%%XXX.....................X&%%%X---",
"---Xo%%%X..OOO.OOOOO.OOOOO.OOOOOX%%%oX---",
"---XXooXX..O#O.O#OOO.O#O#O.O#O#OXXooX ---",
"---Xo%%%X..###.###O#.#####.#####X%%%% ---",
"---X%%%%X..O##.#####.#O###.##O##X%%%% ---",
"---X%%%%X..OOO.OOOOO.OOOOO.OOOOOX%%%%X---",
"---X%%%%X.......................X%%%% ---",
"---X%%%%X%%%%&&&&&&&&&&&&&&&%%%%X%%%%X---",
"---X%%%%X&&&&&&&&&&&&&&&&&&&&&&&X%%%%X---",
"---o%%%%oooo%%%%%%%%%%%%%%%%%oooo%%%oX---",
"----oooo-------------------------oooX----",
};
