/* XPM */
static char *result[] = {
/* columns rows colors chars-per-pixel */
"37 37 14 1 ",
"  c #1D1923",
". c #4C1E3A",
"X c #2D2242",
"o c #3D3964",
"O c #75405C",
"+ c #59557F",
"@ c #9D3131",
"# c #A16072",
"$ c #DF815D",
"% c #595580",
"& c #7678A2",
"* c #FDC18C",
"= c #BBBFD5",
"- c None",
/* pixels */
"--------------XXX   XXX--------------",
"-----------X X%&&&&&&&%X X-----------",
"----------X%%o&&&&&&&&&o%%X----------",
"--------XX&&&X%&&&&&&&%X&&&XX--------",
"-------X%&&&%o%%%%%%%%%o%&&&%X-------",
"------X%&&&%%%o%%%%%%%o%%%&&&%X------",
"-----X%X&%%%%%Xo%%%%%oX%%%%%&X%X-----",
"----X%&&Xo%%%oXXXXXXXXXo%%%oX&&%X----",
"----X&&%o ooXX         XXoo o%&&X----",
"---X%&&%%o X             X o%%&&%X---",
"---X&&%%%oX               Xo%%%&&X---",
"--X%&&%%oX                 Xo%%&&%X--",
"- &%%%oX                     Xo%%%& -",
"- %%%%oX                     Xo%%%% -",
"- o%%%X                       X%%%o -",
"- XoooX                       XoooX -",
"- o%%oX                       Xo%%o -",
"-X%%%%X                       X%%%%X-",
"-X%%%%X                       X%%%%X-",
"-X%%%%X                       X%%%% -",
"-X%%%%X                       X%%%% -",
"-X%%%%X                       X%%%% -",
"- XooXX                       XXooX -",
"-X%%%%X                       Xo%%% -",
"-X%%%%X                       X%%%% -",
"-X%%%%X                       X%%%% -",
"-X%%%%X                       X&%%%X-",
"-Xo%%%X                       X%%%oX-",
"-XXooXX X X X X X X X X X X X XXooX -",
"-Xo%%%XX X X X X X X X X X X XX%%%% -",
"-X%%%%XoXoXoXoXoXoXoXoXoXoXoXoX%%%% -",
"-X%%%%XoooooooooooooooooooooooX%%%%X-",
"-X%%%%X%%%%%%%%%%%%%%%%%%%%%%%X%%%% -",
"-X%%%%X%%%%&&&&&&&&&&&&&&&%%%%X%%%%X-",
"-X%%%%X&&&&&&&&&&&&&&&&&&&&&&&X%%%%X-",
"-o%%%%oooo%%%%%%%%%%%%%%%%%oooo%%%oX-",
"--oooo-------------------------oooX--",
};
