/* XPM */
static char *result[] = {
/* columns rows colors chars-per-pixel */
"32 160 87 1 ",
"  c #0F1D0D",
". c #1B1513",
"X c #241C19",
"o c #1B250E",
"O c #132612",
"+ c #162B13",
"@ c #182D15",
"# c #1A3216",
"$ c #1F3D1B",
"% c #243717",
"& c #25361E",
"* c #223D1C",
"= c #3A2E29",
"- c #393028",
"; c #4C3E35",
": c #22421E",
"> c #26481F",
", c #2B4A1F",
"< c #32431B",
"1 c #304E1F",
"2 c #254520",
"3 c #2A4C22",
"4 c #334E22",
"5 c #374E2A",
"6 c #2D5527",
"7 c #2E5925",
"8 c #2D5628",
"9 c #2F5C2A",
"0 c #325525",
"q c #335B27",
"w c #3F5A25",
"e c #325729",
"r c #3B562F",
"t c #335E2B",
"y c #375831",
"u c #356027",
"i c #3B6727",
"p c #36612C",
"a c #3B652C",
"s c #3E692D",
"d c #53453B",
"f c #57483E",
"g c #405530",
"h c #475C35",
"j c #476228",
"k c #436D2E",
"l c #496F2F",
"z c #46702E",
"x c #49732F",
"c c #537C2D",
"v c #456E30",
"b c #4C653A",
"n c #477130",
"m c #4B7531",
"M c #4F7832",
"N c #517531",
"B c #537C33",
"V c #587F34",
"C c #5B4C40",
"Z c #5E5346",
"A c #614D44",
"S c #65554A",
"D c #6B574D",
"F c #6A594D",
"G c #4C7141",
"H c #577944",
"J c #53754B",
"K c #577C4E",
"L c #5A7E4C",
"P c #578034",
"I c #5C8436",
"U c #608737",
"Y c #628937",
"T c #658C38",
"R c #688F39",
"E c #6C933A",
"W c #70963B",
"Q c #749A3D",
"! c #799E3E",
"~ c #7CA23F",
"^ c #779C41",
"/ c #6F9453",
"( c #7D9D57",
") c #7EA340",
"_ c #81A641",
"` c #84A941",
"' c None",
/* pixels */
"''''''''''''''''''''''''''''''''",
"''''''''''''''''''''''''''''''''",
"''''''''''''''''''''''''''''''''",
"''''''''''''''''''''''''''''''''",
"'''''''''''''M!QIMaa''''''''''''",
"''''(/LKJ'''QQETEYMMs'''''''''''",
"''BR!TQmki'1E!_`!I!Ek0''''''''''",
"'P`E!EEBUVtIWQ`!IIEIMEEBzu7'''''",
"'PW_`~EE~VaMQ^~E!TVEEQYQPmzp''''",
"E)R~~RIVYIkpI`E!_EV!!`~EVQRit'''",
"RWQ`W~`IMBsaWEITEYER!`!TI!Ikt'''",
"YEQQP)QR~EPtEE`QRE_E!!EWIIIka+''",
"^`!TTEYE~QPpPTYIUVTE`E~_EVPmtO''",
"WQE^)!EREVnm!QEPssVQEPQEY_~Ts#''",
"NB^EQEQEPB!!EEEIBBkIE!ETT~QBp'''",
"'BEITIRkPVE^``QI~EkaE)QQEYMva'''",
"'HxkaVPksPYE_QUPTYMpmEQRUVYmt'''",
"'''pzQ~RYksBWQ)WMBvavMBUvmma*'''",
"'''E)EWERMBkk!)REEIptsVEVvpt''''",
"'''TQ)`!I!!zpIEU!)EkkUWWYQmvs+''",
"''Y!R)~YPYRBanETWEMpU_E_QTPTBq''",
"''!W~~E)!BBkamQQUBMvEE_`QUQQMa:'",
"''TT~QE)EEWYspYPMYmW)R~!TTVYPst'",
"''_`ERYEUQ)WMpINssaTT)_E`~PBBae'",
"''~~E)~ETEQBppspe*%WQQEI)TR)QMp'",
"''VIEWWQQTBMkbSf-'o_`!EERUQ~Ex6'",
"''mTWYQUUmYMp&XX'''EEY__QEREMa0'",
"'''mmkkIBsss*''''''lIQTQEEYPIse'",
"''''3tpsa9>+'''''''1BTVIVTvImp#'",
"''''''ZFfd''''''''''3vsaBmstp+''",
"'''''''XX'''''''''''''2rhg5+''''",
"'''''''''''''''''''''''dDA;'''''",
"'''!R)`RIIRIzpQE!EImM)W)!EPTYat'",
"''E!Q_W!~INBaaEETBPYIE)`^RY)Ikt'",
"''PTQ~I_!RWRBekVIvnI)EQ)ETPUYka'",
"''Q`!TUEYR~!IpazvapBEQ`E~`EBBkp'",
"''Q~Q!_QEE~InvQQIBsaYEQP!WT~!Ya'",
"''xPTTBMBIPMQ!EREIMmsTEQTYE!QPp'",
"''NR!TQxksMPE^`)!P!EksT!!WRTPka'",
"'I`W!EEBIPpIWW`)YIEIMQEVvsxVIMp'",
"'PE~`~TE~PaMQ!!E^RVEEQYQVxksBs3'",
"E~E~~RYPTIkpI`E!`EV!!_)WPQRst3''",
"RE!`E)_IMBaaQEIEEIEE^`!YYQPv9'''",
"TEQ!P_QT~EPtEE)QEE)E!!EWIPIva+''",
"^`)TTRYE)QIpVTIIYVTE`E))EVPmtO''",
"WQE^_!EREPnm!QRIsiVQWPQET)~Rs@''",
"mBWEQEWEPB)QEREIBBkYR~RRR!WBt ''",
"'VEIEITnPBR~``!I~EsiR~!QEYBks'''",
"'0xksPIvaPYE`!YPEYMtMEWRUVYmt'''",
"'''pkQ~TYssBEQ~EMBvivMVUnnmp*'''",
"'''W)EERTBBkz!)EEEYptaVRVvau''''",
"'''TQ_`!I!!kpIEIQ~EknYEQYQxks@''",
"''E!R`)UPTTBamETWEMpU_E)QTPTBq''",
"''~W^)E)!MBmanQQTMMkEE_`QUQQms:'",
"''YT~WE_EEWTsaIIMUmW)T)!RTVIIat'",
"''``ETYEIQ_EmpImakaTT__E`~PBBse'",
"''!~E_)ETE!BaP)EIvavEQEI)ER`EMt'",
"''BUEQEW!TMV)EEYWBMmkEWETYQ~Em6'",
"''mREYQYImII!!`)ET^IpM))QQRRMa0'",
"'''xmkvPVsM!E)`EIYEPvtYQERIPIst'",
"''''3pxmapPQW_QWQPVVpiBIPRsPmp@'",
"''''4Y~EEmssT)Y`~RRImtsaBMsap+''",
"'''V)EQTEMBBsIIQTR)!YpsTIka7*'''",
"'''cQ~`~ET)PaV)ETE!RmIRQRQPzk7''",
"''''''''''''''''''''''''''''''''",
"''''''''''''''''''''''''''''''''",
"''''''''''''''''''''''''''''''''",
"Emkp''''''''''''''''''''''''mY)E",
"EMBMp''''''''MQQIMsa'''''''I_EQT",
"ER~IPNGKJ'''QQETEIMma''''''VW)`)",
"IIYR!RQmki'0E)__QIQEk7'''''^T)`R",
"~T`EQWRcUVtUEQ`~TIWIMWEBi7mQQ_W!",
"QUE_`~RE)VaMQ!!EQRBEEQIQPxzsW~U`",
"E)R))TIVYIkpI)E!_EV~!_~WPQTaxRIE",
"EW!`W)_IMBaaWEITWYRR~`~YYQIvpQ_Q",
"kIWQP)QR)EPtEE`!RE)Q!~EEUPIMVIMM",
"kkIRRRYE~!PpPTTIIBRQ`E~_EBVT!TQx",
"IVpE_!EREPnM!QRIsaVQEPQETT_E!EEV",
"~VimWWWEPM~QEREIBBkIE~ERTYE)`~TE",
"TIktTIRkPPR~``QI~EspE~QQE)E~)TUP",
"NBsppVIvsPYW`!IPRTMtmWQTTE)`W)`I",
"~EPavQ^TYksMEQ_ENBkakMBYYEQQP)QT",
"~QIQ)EERTMBzk!~EEEUptaVEImnvVRYE",
"WPvT!``!I~QzaPEYQ_EkvYEQYQnzkIER",
"VVE!E_~IVYTBamETWWMtY`E~QTPTVpRE",
"PP)W^)Q~!MBmazQQUMMvEE_`!IQQMakv",
"snYT~WE`ERWYssIImTxW~T~~TYVYPsak",
"*w__WTIEIQ_WmpPMsssTR)_E`)PBBate",
".<!~E`)ETWQBppkp8*%WQQEI~RR`QMpd",
"'@BURQWWQTNMkbSf='o_`QWERIQ~En6'",
"''kTWTWUYmUBa&XX'''QET~)!EREma0'",
"'''xmkvVVssp*''''''kIQRQEEYPIse'",
"''''3tpks93+'''''''4VTPIPYsPmp@'",
"''''''ZFf;''''''''''3vsaBMspp@''",
"'''''''XX'''''''''''''2rhg5+''''",
"'''''''''''''''''''''''fDA;'''''",
"'''!T)`RIIEPkpQE!EImM)Q)QEVTYay'",
"''E!Q_W!)PBBpsEEYBPYIE)_)TY)Ik7'",
"&#nI!~I`!TERBtkVIkmI)EQ)ETPIImn4",
"EmszYTYEYE_!UppmvatBEQ`E)`ENMY)E",
"EMVMiQ_QEEQIkkQ!IBsaIW!P!QTE`EQT",
"EE^UPIBmVYPmQQETEIMMkTTQTTTIE)`)",
"PIYR^TQnkiMPE^_`^I!EksE!QET^E)`E",
"~T`E~EEBIVaIWQ`!YIEIMWEBvkmQQ_E!",
"QUE_`~RE~VaBQ^~E!TVEEQYQPmziQ~I`",
"W~R~)RUVYIktI`E!_EV^!`)EPWRamTYE",
"RW!_W))IMBiaEWITEYEE!`~YY!IkpQ`Q",
"vIQQP)QR~EPtEE`!EE)E!!EEIPINVIMm",
"kkPETRTE)QPpPTYIIVTE`E~`EBVE!TQm",
"IVaE_QEREVnm!QRPssVQEPQEYT`E!EEB",
"~VamQEQEVB!!EEEIBBkIE!ETTIE)`)TE",
"YIkpYIRkPVE^``QI~EkaE)QQQ)T))TIV",
"MMaaaBIzaIIW`QIPTYMpmEQTTW!_E_`I",
")EIavQ~TTksMEQ`EMBkavMBYYEW!P_QT",
")QPQ)EERTMBzn!)EEEYptaVEImnnPEYE",
"EVnTQ)`~I~QzpIEI!)EkmIWWY^nzkIET",
"VVE!R_~TPTRManETEEMpU_E_QTITBpRE",
"PI)E~~E~!MBzsn^QUBMvEE_`QUWQmakz",
"avYT~WE_EEERsaIPMYmQ)R)!TTVUPsak",
"2w_`WTYEIQ_EmaImasaYY)_E`~PBBste",
"'<!~E_~ETE!BaI)RIzanR!EI~RR`QMpd",
"''BIEQWW!TMP)EQIQMMzzWWERUQ~Rx8'",
"''lTWTQYImII!)`)RI)Ipm))QERRMa0'",
"'''mmkvPPsMQT)`EITEBnpY^EEYVIs0'",
"''''>pxmapI!W~QW~PPBasMIPYkPmp#'",
"'''',T~REzssR~T`~TRIm9aaBMspp+''",
"'''j_EQTWMPMsIIWTR)~IasYYvaq*'''",
"'''VW)`~RR~PaP~ETR~RmIEQTQVzk6''",
"ETR!R)_RIPRIktQW^EIMM~W)QEVRYsm!",
"PUE!Q_W~_IBBasEETBPYIE)`)TT^IspM",
"vvmPQ~I_!RETBtkBIvnI_E!)ERPYYmvk",
"EmkkYTYEYR)!UppxvatBEE`E~`RBMY~E",
"EBBMiQ_QRE!IvvQQYMsaYEQPQQTE_EQT",
"RR~UVIBMVYPmQQEREIMmsTEQTTRIW~`)",
"PIUR^TQmksMVE^_`QI!EksT!QWR!R)_R",
"_T`E!EEBIBaUWW`!YIEIMQEVkkxQQ_W!",
"QYE~`~RE~VaMQ!!W!RBEWWYQPnzsW~I_",
"E~E~)RIPTIkpI_E!`EV!!`)WPQTaMTYE",
"EE!`W~)IMBaaEEIEEIEE!_!YY!IntQ_Q",
"kIQQI)QR~EPtEE)QEE)E!!EWIPImVIMM",
"kkIERRYE)!PpPTYIYBRE`E~)EBVT!TQm",
"IPaE)!EREPnm~QRPsaPQWPQEYR`E!EEB",
"~VaxQEEEPB~!EEEIBBkIE!ETTIE)`~TE",
"YIkpYIRvVVR^``!I~EkaE~Q!W)E~_RIP",
"MBspsVPvsPYQ_QYPTRNpmEQTTW^`E__I",
"~EPavQ^TYssMEQ~EMBkivMBYYEQQP)QR",
"~QIQ!EWETBBzn!~EREYppaPEIMzzPEYE",
"EPkRQ_`!I!QkpIEYQ)EknYEQYQzzkIET",
"VVE!R_^TPYTBamETWEMpI_E)QTPYBpRE",
"PP)Q))W~!MBmanQQYBMvEE_`!IQQmavn",
"asIY~WE_EEWYaaIIMYnW)R)!RYVYIaav",
"IBkkVYYEIQ`WMpIMsssTY)`E`~IBMsIQ",
"Y^nnsI~ETEQBaI)EIvsvEQEI)EE)EWEE",
")YTEVpTW!RMV)EEIQmMmkWEERIW~I)!`",
"WIEEMsnIYnII!!`)EY!Ipm))QWTRWE)`",
"EEVIPasPBsM!R``EIYEVvpY!EEI~)E)Q",
"`~IIPknnspI!E)QE!PVVaaBIPTsII`)E",
"~TE)IT)REnssT_T`~TRIx9aaBMn~)QTI",
"RIQE`EQTEMBMsIIQTR)!YpsIIzsnIQQW",
"QQTIW)`)ER)PaB)ETE!RmIE!RQPzkk)~"
};
