/* XPM */
static char *result[] = {
/* columns rows colors chars-per-pixel */
"32 160 66 1 ",
"  c #252413",
". c #2B2917",
"X c #35341C",
"o c #39361F",
"O c #3E3E20",
"+ c #403E23",
"@ c #3F4120",
"# c #454425",
"$ c #4A472D",
"% c #4C4B29",
"& c #504E2A",
"* c #4D5128",
"= c #55542D",
"- c #58562E",
"; c #57582D",
": c #545234",
"> c #595631",
", c #5D5B32",
"< c #5E5E38",
"1 c #605F35",
"2 c #615D39",
"3 c #5E6033",
"4 c #636236",
"5 c #656439",
"6 c #68663A",
"7 c #6C6A3D",
"8 c #676640",
"9 c #6E6C41",
"0 c #726F44",
"q c #706E4E",
"w c #747344",
"e c #787646",
"r c #747844",
"t c #7A7846",
"y c #76744A",
"u c #79754A",
"i c #7D7B4B",
"p c #7C7B51",
"a c #807E4E",
"s c #817F53",
"d c #827F59",
"f c #848155",
"g c #888255",
"h c #86835A",
"j c #89855D",
"k c #8C8A5F",
"l c #858263",
"z c #8A8662",
"x c #8D8B63",
"c c #8E8969",
"v c #918E67",
"b c #928E6B",
"n c #95926E",
"m c #928F71",
"M c #969273",
"N c #999575",
"B c #9A9876",
"V c #9A9679",
"C c #9D9A7D",
"Z c #A09E7E",
"A c #9E9B81",
"S c #A19E84",
"D c #A39F89",
"F c #A2A086",
"G c #A3A189",
"H c None",
/* pixels */
"HHHHHHHHHHHHHHHHHHHHHHHHHHHHHHHH",
"HHHHHHHHHHHHHHHHHHHHHHHHHHHHHHHH",
"HHHHHHHHHHHHHH==,=HHHHHHHHHHHHHH",
"HHHHHHHHHHHHH-6ch6==HHHHHHHHHHHH",
"HHHHHHHHHHHH3yBACfr,%HHHHHHHHHHH",
"HHHHHHHHHH#wzADFCnft,&HHHHHHHHHH",
"HHHHHHHHH=0cADFAVAftw-&HHHHHHHHH",
"HHHHHHHo<0zCADCMjfyw6,--XHHHHHHH",
"HHHHHH<<pcbNAAxf00604,>--OHHHHHH",
"HHHHHpylAmvFCCf97575r,140,#HHHHH",
"HHHsfscAVkCFcbwpby74715,w7=%HHHH",
"HHHMBcANxMFChdhVSMe6,>,64r6-&HHH",
"HHVNxNCcxSSMsaMGVMh651-6e7i5-& H",
"HkMjfAAbZSNbgbDDSvx64w9wt7rt4-=H",
"Hhh0hMmVFCNcjVGDFbgu,3tga66w01=H",
"HHw1dzbGSNMvvSDZnhfi647tfe5561=H",
"HH,,znCFNNnxNSSVjgsif777tg73;=oH",
"HHHiCSFMdxdbDZZZkahitt3377g7;#HH",
"HHHnGFCgaadSSNZbhiaif77,;4771#HH",
"HHHBANvissZZNcnMxw777ft73;4661HH",
"HHHCNzpd7bZMxhnSCr5,1gi764-=&HHH",
"HHHHhppi0ZNnffnSShw-,rkw57,#HHHH",
"HHHHHr86aNbniiVDZxi,,5fh64,HHHHH",
"HHHHHH22dnkjwySDCks5-14ht7&HHHHH",
"HHHHHHHHyjfi6dSSZkg7--2rf7%HHHHH",
"HHHHHHHHHyy6>zSVxjg7-%%5t5HHHHHH",
"HHHHHHHHHt5>,jMbxdsy=HHX@HHHHHHH",
"HHHHHHHHHHHHHphxjae9HHHHHHHHHHHH",
"HHHHHHHHHHHHHHtgu26$HHHHHHHHHHHH",
"HHHHHHHHHHHHHHHHHHHHHHHHHHHHHHHH",
"HHHHHHHHHHHHHHHHHHHHHHHHHHHHHHHH",
"HHHHHHHHHHHHHHHHHHHHHHHHHHHHHHHH",
"HHHHHHHHHHHHHHHHHHHHHHHHHHHHHHHH",
"HHHHHHHHHHHHHHHHHHHHHHHHHHHHHHHH",
"HHHHHHHHHHHHHH==,=HHHHHHHHHHHHHH",
"HHHHHHHHHHHHH;6cj6-&HHHHHHHHHHHH",
"HHHHHHHHHHHH,yBACse,%HHHHHHHHHHH",
"HHHHHHHHHH#0zFSSCnai,%HHHHHHHHHH",
"HHHHHHHHH>0cAFFSVAhir-&HHHHHHHHH",
"HHHHHHHo,0zCSDCngdr07,--oHHHHHHH",
"HHHHHH2<pcbBCFxfy9604,---oHHHHHH",
"HHHHHpylAmvFCCs99575w<1,r,#HHHHH",
"HHHsfdcAVxCSxb0snw657151w7-%HHHH",
"HHHMNxDmzMFChdhBANy6,-,75e6-%HHH",
"HHVNkNCvvSSMsiMGCMf651-67rt6-% H",
"HkMkdSAbZSNmhmGGSxk64w0rt7et5-=H",
"HhhwdMmVSZNvlBGGSbgu-1tgt66rw1=H",
"HHw,dznSSMMxxFFAnhfa6,7afe4571&H",
"HH,5znASVMbkCSZVddaaa777tar--=oH",
"HHHiAASMhkznSZZZxssa7t415ea7-#HH",
"HHHbGSVhiikCSNNMdaaatt7,-4r74#HH",
"HHHBSNxfssCZNbnNvw77tat6,-,46,HH",
"HHHCNzss9MCBvhnSZe4,1gat64-=%HHH",
"HHHHfppi9AMngaMGZk7;,7v767,#HHHH",
"HHHHHr87pVnnitVDZka,35gg65,HHHHH",
"HHHHHH<3pbkkwwSDZka6;14gi7%HHHHH",
"HHHHHHHHyjfi5pGSVks7--1ea0%HHHHH",
"HHHHHHHHHyy6>cSNcdsw-%*5e1HHHHHH",
"HHHHHHHHHt5>3zNcvdsa=HHo+HHHHHHH",
"HHHHHHHHHHHHHuhxk7a7HHHHHHHHHHHH",
"HHHHHHHHHHHHHHifa26%HHHHHHHHHHHH",
"HHHHHHHHHHHHHHHHHHHHHHHHHHHHHHHH",
"HHHHHHHHHHHHHHHHHHHHHHHHHHHHHHHH",
"HHHHHHHHHHHHHHHHHHHHHHHHHHHHHHHH",
"HHHHHHHHHHHHHHHHHHHHHHHHHHHHHHHH",
"HHHHHHHHHHHHHHHHHHHHHHHHHHHHHHHH",
"HHHHHHHHHHHHHH==,=HHHHHHHHHHHHHH",
"HHHHHHHHHHHHH-6cj6==HHHHHHHHHHHH",
"HHHHHHHHHHHH,yVSCfr,%HHHHHHHHHHH",
"HHHHHHHHHH#wzASFCMat,%HHHHHHHHHH",
"HHHHHHHHH=0cAGFAVAhiw-&HHHHHHHHH",
"HHHHHHHX<0zCGACMjft77,-=oHHHHHHH",
"HHHHHH2<pcvBASxfy9705,--,@HHHHHH",
"HHHHHiylCbbSCCf07565w1117,%HHHHH",
"HHHdfpcANvVDxb0pb075714177=*HHHH",
"HHHMVcAMcMSZhdhNSMu5,-,6776;&HHH",
"HHVVxVCcxDZMppMGVMd651-6w7a6=& H",
"HzMhhACmZSNbhMGGFvk75w9wt77f4-=H",
"HhjwhMMBDZMvjBGGFbfr,1iht66rw1=H",
"HHw,dhmFDMMxvFSCMgga6,7ife556,=H",
"HH,5znCFNMbvVGSVjjsti077ag73-=oH",
"HHHpASFMgkjnSZZVkahtte3367a7-#HH",
"HHHcGSBhpijCSNNMhiaite73-6771#HH",
"HHHBANvasfCAZbnNxw97ea77,-4761HH",
"HHHCNcps0bZNzdnSCr5,1haw63;;%HHH",
"HHHHfipp0ZnnaanDZgw>,wkr67,#HHHH",
"HHHHHr96iVbnaaZSCka,15sh66;HHHHH",
"HHHHHH<<dbkk7uSSCkf5-,5ga6&HHHHH",
"HHHHHHHHqkdi6dSSVzs7--1ei9%HHHHH",
"HHHHHHHHHuy6-zSNvjsw-&&5e5HHHHHH",
"HHHHHHHHHt5>,zMbvssr&HHo+HHHHHHH",
"HHHHHHHHHHHHHihxkut9HHHHHHHHHHHH",
"HHHHHHHHHHHHHHifp24$HHHHHHHHHHHH",
"HHHHHHHHHHHHHHHHHHHHHHHHHHHHHHHH",
"HHHHHHHHHHHHHHHHHHHHHHHHHHHHHHHH",
"HHHHHHHHHHHHHHHHHHHHHHHHHHHHHHHH",
"HHHHHHHHHHHHHHHHHHHHHHHHHHHHHHHH",
"HHHHHHHHHHHHHHHHHHHHHHHHHHHHHHHH",
"HHHHHHHHHHHHHH==,=HHHHHHHHHHHHHH",
"HHHHHHHHHHHHH-6ch6==HHHHHHHHHHHH",
"HHHHHHHHHHHH3yBACfr,%HHHHHHHHHHH",
"HHHHHHHHHH#wzADFCnft,&HHHHHHHHHH",
"HHHHHHHHH=0cADFAVAftw-&HHHHHHHHH",
"HHHHHHHo<0zCADCMjfyw6,--XHHHHHHH",
"HHHHHH<<pcbNAAxf00604,>--OHHHHHH",
"HHHHHpylAmvFCCf97575r,140,#HHHHH",
"HHHsfscAVkCFcbwpby74715,w7=%HHHH",
"HHHMBcANxMFChdhVSMe6,>,64r6-&HHH",
"HHVNxNCcxSSMsaMGVMh651-6e7i5-& H",
"HkMjfAAbZSNbgbDDSvx64w9wt7rt4-=H",
"Hhh0hMmVFCNcjVGDFbgu,3tga66w01=H",
"HHw1dzbGSNMvvSDZnhfi647tfe5561=H",
"HH,,znCFNNnxNSSVjgsif777tg73;=oH",
"HHHiCSFMdxdbDZZZkahitt3377g7;#HH",
"HHHnGFCgaadSSNZbhiaif77,;4771#HH",
"HHHBANvissZZNcnMxw777ft73;4661HH",
"HHHCNzpd7bZMxhnSCr5,1gi764-=&HHH",
"HHHHhppi0ZNnffnSShw-,rkw57,#HHHH",
"HHHHHr86aNbniiVDZxi,,5fh64,HHHHH",
"HHHHHH22dnkjwySDCks5-14ht7&HHHHH",
"HHHHHHHHyjfi6dSSZkg7--2rf7%HHHHH",
"HHHHHHHHHyy6>zSVxjg7-%%5t5HHHHHH",
"HHHHHHHHHt5>,jMbxdsy=HHX@HHHHHHH",
"HHHHHHHHHHHHHphxjae9HHHHHHHHHHHH",
"HHHHHHHHHHHHHHtgu26$HHHHHHHHHHHH",
"HHHHHHHHHHHHHHHHHHHHHHHHHHHHHHHH",
"HHHHHHHHHHHHHHHHHHHHHHHHHHHHHHHH",
"HHHHHHHHHHHHHHHHHHHHHHHHHHHHHHHH",
"zjftt777aa73,=OHHH:4znCFVMbvZSSZ",
"xihtte416wa7;#HH H#uCAFMhkkbSZZN",
"htfttt7,-4w75#+=,=#zGAVfitjCDNVm",
"xw07rat5,=,45-6xh6-qCVbafdCSNvnN",
"Cr6,4gir64->,uBACsr,2dpd9bCBxgnA",
"Sh7-,rzw66,0jSSSCMai,,ri9AnnffMG",
"Cxi,35fh4-0cADFSCAfiw--5pVbnaaBG",
"Akg5-,4w,0zCSDCnhfyw6,-=9bxk7tZF",
"Vzs7>,q<pcvBCSxfw96w4,>-;8di6dSS",
"vggw9iydAMvFCCf97595w,11w-,5=zSV",
"vdhippcAVzCFcn0smw737141w6-=,jMb",
"kuuNBcDMcnFChphBANy6,,,65e6-:0hc",
"pyNNkNCbvSSMsiMGVMg651-6wwt5-=6p",
":dnjdSAvZSNbhmGGFxx74w0rt7ri5-=,",
"Hyd0jmmVSZNvhBGGFbgu-4igt66704=.",
"H$2,dzbSSNMccFFAnhfi5,7ift6661=H",
"HH$3znAGNMmvNFSZddaaw777iaw,-&oH",
"HH@yAAFMhjkbSZZNxasaa7445ra7-#HH",
",=#cGABhiikCSNNNdaaatt7,=5e74#@=",
"j6-0CNnifsCZNbMNvw77tat6,-,54-7x",
"Csr,5hps9mCNvgnSZe4,,aa761->3yBA",
"Cnsi,>yi9ANngamDZk7-,tka66,0zSSF",
"VCfiw=>5iVvnitVDZka,36ag5,0cADSA",
"jdrw6<==0vxkrySDZka6-12w,0zCSSCM",
"w0605,>--6di5sSSVxs7>,w<pcbBAFxf",
"9575r,110-,4>zSVzdsw6iylAmxFVCf9",
"b0717151r6-><jNvxdsadpcSNxCFxb0d",
"SMu6,>,65r6-:0hvk0aZNcSmxMFChdhV",
"VMf65,-6wwf6;-6pa0NNkNCbxFZbsaND",
"Fvk94w0re77t4;=>:dMjdSCbCFZbdbDD",
"Fbfu,,ihi65r74=.Has0hmmZFZMcjVGD",
"ngfi6,9ife4474&HH$22djbGFMMvbSSZ"
};
