/* XPM */
static char *result[] = {
/* columns rows colors chars-per-pixel */
"32 160 58 1 ",
"  c #446733",
". c #466B35",
"X c #4A6E36",
"o c #4A6F38",
"O c #4C7237",
"+ c #4D7339",
"@ c #517636",
"# c #557B37",
"$ c #5A7B36",
"% c #53753A",
"& c #557B3D",
"* c #597D3E",
"= c #5B7F40",
"- c #5E8337",
"; c #5A813E",
": c #618637",
"> c #658B37",
", c #698E37",
"< c #61863B",
"1 c #658B3B",
"2 c #698E3A",
"3 c #6C9336",
"4 c #6E9933",
"5 c #6C933A",
"6 c #719636",
"7 c #739D35",
"8 c #799E36",
"9 c #71973A",
"0 c #739B3A",
"q c #799F3B",
"w c #76A236",
"e c #7CA537",
"r c #7EA837",
"t c #77A038",
"y c #7BA43A",
"u c #7EA938",
"i c #5D8341",
"p c #618643",
"a c #648A45",
"s c #698E47",
"d c #6B8F48",
"f c #6A9140",
"g c #6C9148",
"h c #709441",
"j c #719941",
"k c #79A040",
"l c #80A537",
"z c #80A937",
"x c #80A73A",
"c c #82AD39",
"v c #88AF3A",
"b c #86B13A",
"n c #8AB43B",
"m c #8FB83C",
"M c #90B63E",
"N c #91BA3D",
"B c #98BD3E",
"V c #88AE40",
/* pixels */
"brcbrzcczuzrcbunbrbbrucbrycrcnun",
"7crzznmbbbncVrrn7crrummbbnnunrub",
"bnbnBVNnNnNcctucnmurVBmnmnNburuu",
"ncczcbnbcucu15jas510ttnnbucrwunb",
"ruucccbw7tk>ip&i&&&&a5ru7unebnub",
"ccmVBbu059asaisiiipgsi;rzcbmnnmn",
"b7bunuy0;%%i&i=ai.i&iipffyrbruun",
"rbbmbnt;+%+%& .i&iipiip;+70ww44b",
"umnncza*s==s&pgi=appipp=aajNcbNc",
"cbuez,*@$sgii&&i=i&%=%%%&sgvbrzb",
"unub6ai%==pai&%i&i&iop;$**p6tyec",
"unmyhsp*aa+&isp&iipagdp&saX&ymbr",
"mNmt&&&i&o%%%i.iaspp*&&=*O%@0c7b",
"bmn5&i&.ip*a*+ii=pi&%i&.*p*%6rbc",
"nntiipiip&ppspspii=ipp;pp&a;0nNm",
"nu5i&+&%&ipioi=&p&ii&+&%*&;*O0cc",
"br5;&i&i=&=&iiipi&ii&;&i&.OO:0bn",
"wz>+&iaiiii=p&&ioi&&&isiii&O:yrb",
"bn5-igasapgi&&i&paipsgaps&;>4ruu",
"nz9-%&iii&&=+&pip&;&&;iii&#5wunb",
"rcy5:+i++&p%ip&i=&&&==i&Oo&1cnub",
"ccnn2..&iipaaiai=ipga=&&i&@2nnnn",
"b7by-O.ii&&i&i=ai.i&iii+i#>4ycun",
"zcbne5*&o%%%%. i&iipiiio.O>rw44n",
"cNbnby2#@O&d*psiiaipi+*.+0cNcbNb",
"rbuyur6-XO2;#%=i=i=%*+.@#uBnbrzb",
"cnrbwmb8,:>@+&#i&+&+.$-6ubnnbywc",
"cnnmBNbcNc,:%ii&&o+:#ycrmn7ucmbr",
"NNnnzzecr7w8e->@&-593eezr78wzzwc",
"cMbuzce7cnzmcwu05bbrzbe7znzmcebc",
"nbcbbbrcnunnmnmnnnunnbzbncnnNnNM",
"nrcbzwzzcunbwbbunrbbrwzlzcncwbcc",
"brcb;#&i&&i&ii&pi&ii&=*i=%=;1nrn",
"7cuy;+iiiii=p&&i+i&&&iaiii+#2trb",
"bncn5+&aapgi&&i&iaipasaasi*O-3cr",
"ncr5O&iii&=&+;pii=i&&iiii&#o#wnb",
"zcut#&i#+%a%ia&i&=&%=;i&+O;-5bub",
"ccnV1;&&ipiapigiiiigs;&&iio&ybmn",
"b7cu5&iip&&i&i=pi.i&iiiii++.9bun",
"rbck;&iio%+&+..i&iiaiii=.+.#,44b",
"zNbbpii=a==s=psi=aiiiipii&++2cmb",
"cbr0;%%%%sgpi&&p=i&&&=%%&si+1urb",
"uncy:;i$i=pai&%i&p=i+pi%;*<#0ewc",
"cnmb2%;*aao&isi&iiipgsiisa#>ymbu",
"mVNy1%&=&o+%&io=sspp=%&i&+.#,uwc",
"cmn5&i&.ip*s&%i=&ai%&i&.iiO+-wcb",
"nnucap*pi*ppspsapi&iip=ii&&O9mmm",
"nuby&+&%&ii=+;=&p&ii&+=%*=&+#ubu",
"buc5++&;=%=&=i;pi&ii&*=i&&&&2cun",
"tuyf&ia;ipi=p&&i.i&&&pp;i++#0rrb",
"bnny;saaapsi*&i&ppipsgspa&O*2wcr",
"nuby#;iii&==+&pip=i&&iii;#O*-ynb",
"rurt&;;&+%a%ip&i&&&%*&i&++O#3nrb",
"ubnV;o&#iipaaisiiipssi&&i&&i5nmn",
"n4b5iiiii&&i&i=ai.i&iiiii&&O2ucn",
"ubbyOiiio%%+& .i=iiaipiiOO.&-46b",
"umb5##i=ai=aiigi=aiaipi&p+%s2vNc",
"bbw2%%%%&agpi%&i&i&&*&+XXO+2cerb",
"unu5+*i$==aai&%iia&i%pi%i&*%yrwc",
"bnny+=i&aao&isp&=iiiggi&saX#5nbu",
"nNm5&&&i=o%%&i.iasiii=&i&.+O>uwc",
"bmu;;i&.ip&a*+iiiii+&i&.=i+-2wvc",
"nnu0O&;ii&ppspsaii=iiiiiiOO2ymnm",
"nub;.O&&*=pio;=&a=ii&o=+**+-7ccc",
"brbbuuubuubuununbrbbuubburbubbub",
"7crcbnmbbbmunuubwcrrunmnbnmunuub",
"nnxnmmuVNuNbyububxbnmNVmbnVnuybu",
"j1;yt0i0u;;71115k1r50tuu150y-unt",
"&&#+;;&+;;iO+&oi;&#%&+&OO@&+;b2i",
"iiai+&#&;ii@=i+ii;+gsi&&i@&ii+pi",
"i.i&iiiii&#&+i=pi.&&iiiii++i+&=p",
"&iipipii+%+&%..i&iipiaii+++@%..i",
"igiiiiiia==s=psiisiiiiiia==s=igi",
"&i=+i&%%%sgpi&=i&i&&i&+%&sgpi&&i",
"=p&i%pi&=*pai&+i&i=i%pi&i&isi&+i",
"&ipagsi&sa+&isi&iiiagsi*sao%igi&",
"sspp*&%i&.%%&io=sspi&&&=&+%%&i.i",
"&pi%&i&.ip*a&+ii&ai%&i&.ip&a*+ii",
"pi&ppp=ip*ppspsppi*ppa*pi;ppspas",
"p&=i&o=%&;pi+*i*p&=i%+&%*ii=oii&",
"i&ii&&ii=+i&ii&pi&ii&i*i&&=&;i;i",
"+=&&&ipiiii=p&&i.=&&&ia;ipp&p&&i",
"paiasssaspgi&&i&psipadaaspsii&i&",
"p&*&&;iii&=&+;pip&i&&iipi&&=+&p&",
"&=&&=&;++%p%ip=i&&&&=;i&+%a%ip&i",
"*ipas+&+&piaaiaiiiigs+&&iipaapsi",
"i.i&i&+&&&&i+iipi.;&&+iip&&i%=&=",
"&&+i&++..%%%&..i&++++ii&.%.%&. .",
"%&%+&.&.+&O;+;gi&o+.@;+++&+&&&i&",
"++..O+..%+&%++&i&-@.&.+.o#&OO.+.",
".;<@.p$$*+=*o++iO#,*+&+#-%O+O+oo",
",0xx00ywt1%,>51+;0nt55;2t9%#&->#",
"mNmnzrrzr467euw0xVNmzwtrr787wc40",
"bnbrzce7znzncenbcmnuzce6cbzncwbb",
"nbubbnrnncnmmnmmnncbbbrbbcnMmnmn",
"nubbrwzlzcbbwbccmzccryzzzbbbwbbu",
"brcc1.+i=%=&=i&pi&ii&;=i&&&2ubun",
"7c0r0ii;ipi=p&&i.i&&&iaii=&1yyub",
"bnqf;&apspsi&&i&isiasgaiai&&;5uu",
"ku1&#&iii&&=+ipip&*&&;iii&;&.&f1",
"&&+%i&i&+%a%ia&i=&&%i=i&+%p+&i;i",
"iiagg;&&iiisaisiiipga=&=ipiaiiai",
"i.i&iiiip&&i%i&ai.i&iiiip&&i+iii",
"=iiaiiiio%+%%..i&iipippi+%+&&..i",
"=siiipi=a=*s&pgi=sppipp*s&iaipsi",
"&i&&=%%%&sgpi&&p&=&%*%%%&sgii&&i",
"is&i%pi&==psi&+i&p&i+ai&i=isi&+i",
"=iiigsi&aao%igp&iipaddi*sp+%isp&",
"igiii=&i&+%%&i.isapp*&&=&+%%%ioi",
"iii+&i&.ip&s*+i=&pi&&i& ip&a=+i=",
"iiiiiiiii&ppapsspi&iip=piippsiaa",
"a=ii&o=+*iii+i&&p&ii&+&%*&i=+ii*",
"i&ip&i;i=&=&iiiii&ii&&ii=+i&iiii",
".i&&&ipiiii=i&&i+i&&&is;iii=i&&i",
"paipagapaisii&i=paipssspaigi&&i&",
"p&;%&iiii=&=+&pip**&&;iii==&+&pi",
"&&&%&=i&o&p%ii=i&=&&==i&+%p%ip&i",
"iiaggi&&iiiaaiai&ipgg*&&ipiaapsi",
"i.i&iiiii&&i&==ap.i&iiiip&&i&i=p",
"&*ipipii+%%&%..i&iipipii+%++& .i",
"ii+iiipia==s=pai=sipipp*a=&p;i+%",
"&%.+&+.+&agpi&=i&i&%&&%%%sa+&&.+",
"+.Oi.O&%==pai&+i&p&i+pi&i=i++&#;",
"&*#+Opp&sa+%iap==iaagdi&s&..+;5:",
"j02+O&&=&.#%&i.isgpp&=%=%..O:-3y",
"bn0:#&%.ip=p*+ii&pi&&i& .+*p:2zb",
"nnr9#+Oii;ppaaspii&iii&++Oi10rVN",
"nrc0+.&%&ip=+;i;p&ii&+&%%&10wbbb",
"i&ii&&ii=&i&=i;ii=ii&=*i=&=&;p*p",
"+i&&&ipiiip&p&&i.i&&&ia;iip&p&&i",
"paipsssisigi&&i&paipasaaapsi=&i&",
"p&i&&;iii&&=+ipii=i&&iipi&&=+&p=",
"&*&%i=i&+%a%ip=i&=&%&=i#+%a%=a&i",
"*ipga=&=ipiapiaiiiigai&&ipiaapai",
"i.i&iiiip&&i&iipi.i&piiip&&i%i&a",
"&iiaippio%+&+..i&iipippio%%%& .i",
"=sppipi=a==s=psi=aiiiip*pi=s=psi",
"==&+=%%%%sgpi&&p=i&&=&%%&sgpi&&i",
"=i=ioai$i=pai&%i*p&i+pi&i&pai&+=",
"=ipadsp&aao&isi&&pppgsp&aao%isp&",
"aapp&&%i&o+%&=oisspp&&&==+%%&ioi",
"=pi&&i&.ip*s&%i=&ai%&i&.ii&a&&ii",
"ii=ipp*pi*ppspsapi&ppp=pp&ppaisp",
"p&ii&+&%&ii=+;=&a&=i&o&%*iiioii;",
"i&ii&&ii&&=&=i&pp&ii&*=i=%=&ii&i",
"+i&&&pp;ipp&a&&i.=&&&pa*ipi=p&&i",
"isiisgspspdi*&i&paipsgaaapsi&&i&",
"p&i&&iiii&&&+&pipi;&&;ii=&==+=pi",
"&=&&**i#+%a%ip&i&;&%*=i%+%p%ip&i",
"=ipas=&=iipsapaiiipgs=&&iiisaisi",
"i.i=iiiip&&i&==ai.i&iiiii=&i&==p",
"=iiaiii=o%+%%..i&iiaipiio%%+#..=",
"=aiaipi=a**s&psi=aiaipp*a=*s=psi",
"&i=+*&%%&sgpi&&p&i&&*&%%&sgpi&&i",
"is&i+pi&=*psi&%=ia&i+pi&==psi&+i",
"=iiiggi&aao&isp&=iiigsi&aao%isp&",
"isiiii&i&+%%%iXiasiii=&i&+%%&=.i",
"iii+&i&.ip*a=+iiiii+&i&.ip*a*+ii",
"iiiiiiiii&ppapsaii=iiiiii&ppspsa",
"a=ii=o=+*=pi+i=&a=ii=+=+*=pi+i=&"
};
